<?xml version="1.0" encoding="UTF-8"?><svg id="Layer_1" xmlns="http://www.w3.org/2000/svg" viewBox="0 0 340.29 87.95"><defs><style>.cls-1{fill:#336698;font-family:CenturyGothic, 'Century Gothic';}.cls-1,.cls-2{font-size:42px;}.cls-3{fill:#40d1ce;}.cls-2{fill:#142e43;font-family:CenturyGothic-Bold, 'Century Gothic';}.cls-4{fill:none;stroke:#40d1ce;stroke-miterlimit:10;stroke-width:2px;}</style></defs><path class="cls-4" d="M21.35,49h0l-.08,5.8v3.07c0,4.54,4.06,8.25,9.02,8.25h49.22c2.48,0,4.74-.93,6.37-2.42,2.58-2.36,2.63-5.27,2.65-5.82l.23-8.65h0"/><line class="cls-4" x1="22.5" y1="60.92" x2="87.31" y2="60.92"/><line class="cls-4" x1="41.45" y1="72.23" x2="68.66" y2="72.23"/><line class="cls-4" x1="48.06" y1="66.23" x2="48.06" y2="72.96"/><line class="cls-4" x1="62.16" y1="66.1" x2="62.16" y2="72.83"/><path class="cls-3" d="M29.83,29.89c-2.36,3.51-5.6,6.47-8.98,8.97-.79,.67-1.94,1.31-1.77,2.36,.05,.34,.35,.81,.8,1.27,1.43,1.45,3.1,2.76,4.52,4.27,2,1.99,3.94,4.04,5.74,6.21-2.96-1.97-5.67-4.13-8.38-6.36-1.02-.82-2.37-1.82-3.29-2.77-.52-.54-1.14-1.22-1.36-2.27-.4-1.87,1.29-3.38,2.62-4.24,0,0,3.46-2.34,3.46-2.34,2.26-1.59,4.44-3.32,6.64-5.1h0Z"/><path class="cls-3" d="M80.74,30.35c3.41,1.83,6.48,4.13,9.36,6.7,1.06,1.07,2.19,1.9,2.48,3.64,.11,.83-.27,1.84-.78,2.45-1.3,1.58-2.92,2.67-4.52,3.84-2.11,1.44-4.27,2.81-6.53,4.01,2.61-2.81,5.59-5.15,8.32-7.76,1.1-1.07,2.26-2.07,.93-3.5-2.92-3.26-6.24-6.15-9.25-9.38h0Z"/><line class="cls-4" x1="34.72" y1="34.48" x2="45.58" y2="34.48"/><line class="cls-4" x1="34.72" y1="38.76" x2="56.89" y2="38.76"/><line class="cls-4" x1="59.92" y1="38.91" x2="70.78" y2="38.91"/><line class="cls-4" x1="34.72" y1="43.34" x2="51.54" y2="43.34"/><line class="cls-4" x1="55.06" y1="43.34" x2="58.72" y2="43.34"/><line class="cls-4" x1="61.55" y1="43.34" x2="72.71" y2="43.34"/><line class="cls-4" x1="34.72" y1="48.08" x2="38.39" y2="48.08"/><line class="cls-4" x1="41.49" y1="48.08" x2="61.55" y2="48.08"/><line class="cls-4" x1="64.53" y1="48.08" x2="71.43" y2="48.08"/><path class="cls-4" d="M21.27,33.77v-8.74c0-4.65,4.06-8.45,9.02-8.45h49.22c4.96,0,9.02,3.8,9.02,8.45v3.14"/><polyline class="cls-4" points="88.53 33.77 88.53 27.35 88.84 27.35"/><text class="cls-1" transform="translate(99.67 59.01)"><tspan x="0" y="0">Gym</tspan></text><text class="cls-2" transform="translate(197.29 58.97)"><tspan x="0" y="0">Lab</tspan></text></svg>